<svg width="160" height="135" viewBox="0 0 160 135" fill="none" xmlns="http://www.w3.org/2000/svg"><path d="M154.146 84.043c-1.347 29.979-37.389 43.495-73.684 42.989-36.295-.505-65.979-3.789-74.063-37.936C-1.685 54.947 44.715 9.431 75.915 8.085c53.389-2.316 79.579 45.937 78.231 75.958Z" fill="url(#a)"/><path d="M79.663 34.863c.337-2.063.085-4.295.043-6.4-.043-2.274-.085-11.537-.337-13.768-.084-.969-1.39-.969-1.516 0-.21 2.147-.21 11.284-.21 13.431 0 2.105-.295 4.38-.043 6.485.169 1.01 1.853 1.515 2.064.252Zm12.884 6.779c1.853-.884 3.537-2.695 5.137-4 1.726-1.431 6.821-6.19 8.421-7.79.716-.673-.126-1.684-.926-1.178-1.895 1.22-6.99 5.979-8.758 7.326-1.642 1.263-3.705 2.484-5.095 4-.716.842.295 2.063 1.221 1.642ZM59.158 37.81c1.684 1.221 3.368 2.906 5.263 3.79.926.463 1.81-.884 1.179-1.6-1.347-1.558-3.537-2.695-5.221-3.832-1.853-1.263-3.705-2.568-5.642-3.705-.842-.505-1.6.59-.885 1.221 1.685 1.474 3.495 2.78 5.306 4.127Z" fill="#FCB32C"/><path d="M114.821 111.368H41.516c-4 0-7.242-3.242-7.242-7.242V92.968l6.653-34.19c.926-4.168 2.779-7.241 7.242-7.241h60c4 0 5.936 1.852 6.694 6.231l7.411 35.58-.168 10.82c0 3.958-3.243 7.2-7.285 7.2Z" fill="url(#b)"/><path d="M114.19 96.295s-15.537.252-20.505.294c-.632 0-1.18.506-1.222 1.137-.21 3.116-1.389 4.295-4.673 4.295H68.969c-2.063 0-4.463-1.221-4.842-4.674a1.228 1.228 0 0 0-1.221-1.052h-20.8a4.753 4.753 0 0 1-4.758-4.758l6.61-33.137c.548-2.653 2.148-4.758 4.758-4.758l58.905-.084c2.653 0 4.337 2.105 4.758 4.758l6.611 33.22c-.042 2.611-2.148 4.759-4.8 4.759Z" fill="#2161A3"/><path d="M40.632 93.81c.547-2.99 1.137-5.979 1.684-8.968l2.526-13.769a74.35 74.35 0 0 1 .547-2.989c.337-1.431 1.137-2.526 2.653-2.779.59-.084 1.137-.084 1.727-.084h40.083c3.368 0 6.779.042 10.147-.126 2.442-.127 4.926-.253 7.326-.127 1.348.084 2.358.674 2.99 1.853.337.632.547 1.305.674 2.021.673 3.832 1.389 7.663 2.063 11.495a1188.18 1188.18 0 0 0 2.189 12.084c.042.252.084.463.126.716.085.59.969.337.885-.253-.548-3.116-1.137-6.231-1.685-9.347-.8-4.506-1.642-9.053-2.442-13.558-.252-1.432-.463-2.821-1.305-4.042-.758-1.137-1.895-1.684-3.2-1.81-1.474-.127-2.989-.043-4.421 0-2.021.041-4.042.168-6.063.21-1.684.042-3.41.042-5.095.042H51.663c-1.347 0-2.82-.127-4.126.21-2.063.548-2.737 2.4-3.116 4.295-.716 3.916-1.431 7.874-2.147 11.79-.758 4.084-1.432 8.168-2.19 12.252-.042.21-.084.463-.126.674-.084.463.59.631.674.21Z" fill="#113461"/><defs><linearGradient id="a" x1="4.737" y1="77.659" x2="151.679" y2="58.689" gradientUnits="userSpaceOnUse"><stop stop-color="#9AE5FC"/><stop offset=".839" stop-color="#E0F4FF"/></linearGradient><linearGradient id="b" x1="34.271" y1="81.453" x2="122.273" y2="81.453" gradientUnits="userSpaceOnUse"><stop offset=".031" stop-color="#2C87FC"/><stop offset=".859" stop-color="#6EBFFF"/></linearGradient></defs></svg>